<svg xmlns="http://www.w3.org/2000/svg" xmlns:xlink="http://www.w3.org/1999/xlink" version="1.1" id="Livello_1" x="0px" y="0px" viewBox="0 0 345.4 31.1" style="enable-background:new 0 0 345.4 31.1;" xml:space="preserve">
<style type="text/css">
	.st0{fill:#FFFFFF;}
</style>
<g>
	<g>
		<path class="st0" d="M14.5,11.8c2.6-2.9,4.3-4.5,6.5-4.5c2.7,0,3.5,2.5,2.1,6.5c-2,5.7-7.9,11.1-12.1,11.1c-1.7,0-2.4-0.7-2.7-2.4    c-3.1,4.8-4.9,7.6-6,8.3c-0.4,0.3-0.6,0.4-1,0.4c-1.3,0-1.6-1.4-0.8-3.8C2.4,21.8,10.3,7.6,14,7.6c1,0,1.4,0.6,1.1,1.7    c-0.2,0.5-1.3,2.9-1.5,3.5L14.5,11.8z M11,21.8c1.9,0,4.5-2.9,5.7-6.4c0.6-1.7,0.8-3.2,0.5-3.2c-0.5,0-5,4.6-7.6,8.2    C9.7,21.3,10.1,21.8,11,21.8z"/>
		<path class="st0" d="M26.3,13.8c2.1-3.4,4-6.4,6.3-6.4c0.8,0,1.1,0.5,1,1.5c0.2-0.2,0.3-0.3,0.6-0.5c0.9-0.8,1.3-1,1.8-1    c0.9,0,1.1,1.1,0.4,3c-1.1,3.2-3.5,6.7-4.5,6.7c-0.4,0-0.4-0.7,0.2-2.2c0.5-1.5,0.7-2.9,0.5-2.9c-0.2,0-1.2,1.7-2.3,4.5    c-0.3,0.9-0.7,1.7-1.1,2.6L29,19.4c-1.3,2.9-1.4,3.1-2.6,4c-1.1,0.8-2.1,1.2-2.9,1.2c-1.4,0-1.6-1-0.8-3.3c0.7-1.9,2.1-4.9,3.4-7    L26.3,13.8z"/>
		<path class="st0" d="M34.2,20.2c1.4-4,5-9.8,7.5-11.9c0.5-0.5,1.1-0.7,1.7-0.7c1.3,0,1.7,1.3,1,3.4c-1.1,3.1-3.4,7.4-6.3,11.5    c-0.9,1.2-1.7,2.1-2.9,2.1C34.8,24.6,32.8,24.2,34.2,20.2z M42.5,4.8c0.5-1.3,1.9-3.3,3-4.2C46,0.1,46.4,0,47.1,0    c1.2,0,1.4,0.6,1,1.9c-0.8,2.4-3.1,4.9-4.7,4.9C42.3,6.8,42,6.1,42.5,4.8z"/>
		<path class="st0" d="M55.5,23c-1.7,1.3-2.4,1.6-3.2,1.6c-1.4,0-2-1.2-1.5-2.8c0.4-1,0.9-2,2.5-4.1c0.4-0.6,0.5-0.7,0.8-1.1    c-2,1.5-2.7,2.1-4.6,3.8c-3.4,3-5,4.1-6.1,4.1c-1.5,0-1.9-1.3-1.2-3.4c0.5-1.4,1.6-3.2,3.8-6.4c3.1-4.4,5.1-7.1,7.4-7.1    c1.3,0,1.9,0.7,1.6,1.6c-0.3,0.9-0.9,2-2.4,4.1c-0.9,1.2-1,1.5-1.6,2.4c1-0.8,1.2-0.9,3-2.5c4-3.5,6.6-5.7,8.5-5.7    c1.2,0,1.8,1.4,1.3,2.9c-0.2,0.6-0.9,1.8-2.3,3.9c-0.7,1-0.8,1.1-1.2,1.7c1-0.7,2.5-1.7,4.9-3.7c2.4-2,3.3-2.5,4.1-2.5    c1.4,0,1.8,1.1,1.1,3c-0.4,1.1-2.4,4.9-3.5,8c-0.4,1.1-0.6,2-0.8,3.7c-0.1,0.8,0,0.9-0.2,1.5c-0.3,0.8-1.9,1.5-3.1,1.5    c-0.9,0-1.7-0.4-2.2-1.3c-0.7-1.1-0.6-2.3,0.3-4.9c0.4-1.1,0.5-1.4,1.5-3.8L61.9,18L55.5,23z"/>
		<path class="st0" d="M71.9,24.9c-2.6,0-3.8-2-2.8-4.6c1.8-5.1,10.7-12.9,16.6-12.9c2.9,0,4.5,1.4,3.9,3.3    c-0.3,0.8-0.7,1.4-1.5,2.2c1.2,0,1.3,0.1,1,1.2c-0.2,0.6-1.3,3.4-1.6,4c-0.9,2.5-1,3.6-1,4.6c-1.8,1.4-3.2,2-4.5,2    c-2.7,0-1.3-3.8-0.8-5.4C76.8,23.1,73.7,24.9,71.9,24.9z M83.8,15.2c-0.6,0.2-1.8,0.5-2.4,0.5c-0.4,0-0.6-0.1-0.5-0.4    c0.1-0.1,0.2-0.3,0.5-0.7c0.9-0.9,1.6-2,1.9-2.8c0.4-1,0.2-2,0-2c-0.7,0-5.9,4.5-6.9,7.6c-0.5,1.3-0.2,2.3,0.6,2.3    c0.7,0,3.1-1.5,6.3-4L83.8,15.2z"/>
	</g>
</g>
<path class="st0" d="M115,21.2v5.9H98.3V3.2h7.3v18H115z"/>
<path class="st0" d="M130.7,27.1l-1.3-4.7H123l-1.4,4.7h-5.9L123,3.2h7.7l7.5,23.9H130.7z M124.2,17.2h3.9l-1.9-6.9L124.2,17.2z"/>
<path class="st0" d="M166.3,3.2v23.9h-6.8V10l-4.4,17.1h-4.6L145.9,10v17.1h-5.5V3.2h9.6l3.5,12.7l3.3-12.7H166.3z"/>
<path class="st0" d="M183.6,27.1l-1.3-4.7h-6.4l-1.4,4.7h-5.9l7.4-23.9h7.7l7.5,23.9H183.6z M177.2,17.2h3.9l-1.9-6.9L177.2,17.2z"/>
<path class="st0" d="M214.6,27.1h-8.1l-3.5-9.1h-2.3v9.1h-7.3V3.2h12.5c2.7,0,4.9,0.6,6.4,1.9c1.5,1.3,2.3,3,2.3,5.1  c0,1.4-0.3,2.6-0.8,3.6c-0.6,1.1-1.7,2-3.4,2.8L214.6,27.1z M200.6,12.8h3.1c0.9,0,1.7-0.2,2.2-0.6c0.6-0.4,0.8-1,0.8-1.7  c0-1.5-0.9-2.3-2.8-2.3h-3.4V12.8z"/>
<path class="st0" d="M227.8,8.9v18.1h-6.9V8.9h-4.9V3.2h16.8v5.7H227.8z"/>
<path class="st0" d="M252.8,21.4v5.7h-17.9V3.2h17.9v5.5H242v3.5h8.7v5.3H242v3.9H252.8z"/>
<path class="st0" d="M253.2,20.2l6.8-1.2c0.6,1.9,2,2.9,4.4,2.9c1.8,0,2.8-0.5,2.8-1.5c0-0.5-0.2-0.9-0.6-1.2  c-0.4-0.3-1.2-0.5-2.3-0.8c-4.2-0.8-6.9-1.8-8.1-3.1c-1.2-1.3-1.8-2.8-1.8-4.6c0-2.2,0.9-4.1,2.6-5.6c1.7-1.5,4.2-2.2,7.4-2.2  c4.9,0,8.1,2,9.6,5.9l-6.1,1.8c-0.6-1.6-1.9-2.4-3.8-2.4c-1.6,0-2.4,0.5-2.4,1.5c0,0.4,0.2,0.8,0.5,1c0.4,0.2,1.1,0.5,2.1,0.7  c2.9,0.6,4.9,1.1,6.1,1.6c1.2,0.5,2.2,1.3,3,2.4c0.8,1.1,1.2,2.5,1.2,4c0,2.4-1,4.4-2.9,5.9c-2,1.5-4.5,2.2-7.7,2.2  C258.2,27.4,254.6,25,253.2,20.2z"/>
<path class="st0" d="M290.6,27.1l-1.3-4.7h-6.4l-1.4,4.7h-5.9l7.4-23.9h7.7l7.5,23.9H290.6z M284.1,17.2h3.9l-1.9-6.9L284.1,17.2z"/>
<path class="st0" d="M320.7,27.1h-6l-6.5-10.5c-0.8-1.4-1.7-3-2.5-4.9c0.4,1.5,0.6,2.8,0.6,3.9v11.6h-5.9V3.2h6.9l5.6,8.7  c1.1,1.7,1.9,3.3,2.5,4.6c-0.4-2-0.6-4.1-0.6-6.3V3.2h6V27.1z"/>
<path class="st0" d="M338,27.1l-1.3-4.7h-6.4l-1.4,4.7h-5.9l7.4-23.9h7.7l7.5,23.9H338z M331.5,17.2h3.9l-1.9-6.9L331.5,17.2z"/>
</svg>
